<svg id="Layer_1" data-name="Layer 1" xmlns="http://www.w3.org/2000/svg" viewBox="0 0 64 64"><defs><style>.cls-1{fill:#051c38;}.cls-2{fill:#efeadd;}.cls-3{fill:#44c2c9;}.cls-4{fill:#f5c914;}</style></defs><path class="cls-1" d="M55.57,32A23.42,23.42,0,1,1,32.16,8.58,23.41,23.41,0,0,1,55.57,32Z"/><polygon class="cls-2" points="43.74 24.84 36.67 24.85 39.3 27.64 33.97 32.96 29.94 28.93 21.24 37.63 22.65 39.05 29.94 31.76 33.97 35.79 40.71 29.05 43.74 31.92 43.74 24.84 43.74 24.84"/><path class="cls-3" d="M32.21,55.47A23.5,23.5,0,0,1,8.74,32h8A15.46,15.46,0,0,0,43.21,42.87l5.69,5.62a23.28,23.28,0,0,1-16.69,7Z"/><polygon class="cls-3" points="40.4 40.15 51.71 51.47 51.71 40.13 40.4 40.15 40.4 40.15"/><path class="cls-4" d="M55.64,32h-8A15.46,15.46,0,0,0,21.17,21.13l-5.69-5.62A23.46,23.46,0,0,1,55.64,32Z"/><polygon class="cls-4" points="23.98 23.85 12.67 12.53 12.67 23.86 23.98 23.85 23.98 23.85"/></svg>