<svg id="Layer_1" data-name="Layer 1" xmlns="http://www.w3.org/2000/svg" viewBox="0 0 64 64"><defs><style>.cls-1{fill:#051c38;}.cls-2{fill:#efeadd;}.cls-3{fill:#081d37;}.cls-4{fill:#44c2c9;}.cls-5{fill:#f5ca17;}</style></defs><path class="cls-1" d="M56,32A24,24,0,1,1,32,8,24,24,0,0,1,56,32Z"/><path class="cls-2" d="M14.06,18.12V47.91a24.07,24.07,0,0,0,4.85,4.21h7.15v3.16c.65.17,1.32.31,2,.43V52.12h8v3.59c.68-.12,1.34-.26,2-.43V52.12h7.15a24.07,24.07,0,0,0,4.85-4.21V18.12Z"/><path class="cls-3" d="M18.91,52.12a23.71,23.71,0,0,0,7.15,3.16V52.12Z"/><path class="cls-3" d="M28.06,52.12v3.59a24.41,24.41,0,0,0,8,0V52.12Z"/><path class="cls-3" d="M38.06,55.28a23.82,23.82,0,0,0,7.15-3.16H38.06v3.16Z"/><polygon class="cls-1" points="26.06 30.12 18.06 30.12 18.06 22.12 26.06 22.12 26.06 30.12 26.06 30.12"/><polygon class="cls-1" points="36.06 30.12 28.06 30.12 28.06 22.12 36.06 22.12 36.06 30.12 36.06 30.12"/><polygon class="cls-1" points="46.06 30.12 38.06 30.12 38.06 22.12 46.06 22.12 46.06 30.12 46.06 30.12"/><polygon class="cls-1" points="36.06 40.12 28.06 40.12 28.06 32.12 36.06 32.12 36.06 40.12 36.06 40.12"/><polygon class="cls-1" points="46.06 40.12 38.06 40.12 38.06 32.12 46.06 32.12 46.06 40.12 46.06 40.12"/><path class="cls-4" d="M37.74,17.59a8,8,0,1,0-11.36,0h0l0,0h0l5.65,5.65,5.65-5.65h0l0,0Z"/><polygon class="cls-1" points="26.06 40.12 18.06 40.12 18.06 32.12 26.06 32.12 26.06 40.12 26.06 40.12"/><polygon class="cls-1" points="36.06 50.12 28.06 50.12 28.06 42.12 36.06 42.12 36.06 50.12 36.06 50.12"/><polygon class="cls-1" points="46.06 50.12 38.06 50.12 38.06 42.12 46.06 42.12 46.06 50.12 46.06 50.12"/><polygon class="cls-1" points="26.06 50.12 18.06 50.12 18.06 42.12 26.06 42.12 26.06 50.12 26.06 50.12"/><polygon class="cls-5" points="32.06 6.42 33.33 10.33 37.44 10.33 34.11 12.74 35.38 16.65 32.06 14.24 28.73 16.65 30 12.74 26.68 10.33 30.79 10.33 32.06 6.42 32.06 6.42"/></svg>