<svg id="Layer_1" data-name="Layer 1" xmlns="http://www.w3.org/2000/svg" viewBox="0 0 64 64"><defs><style>.cls-1{fill:#efeadd;}.cls-2{fill:#081d37;}.cls-3{fill:#f5c914;}.cls-4{fill:#44c2c9;}</style></defs><path class="cls-1" d="M56,32A24,24,0,1,1,32,8,24,24,0,0,1,56,32Z"/><path class="cls-2" d="M48.07,32.23a16,16,0,0,1-32.06,0Z"/><path class="cls-2" d="M32.13,32.33H16A16.12,16.12,0,0,1,32.13,16.21V32.33Z"/><path class="cls-3" d="M32,32.33V16.21A16.12,16.12,0,0,1,48.07,32.33Z"/><path class="cls-4" d="M45.5,14A1.5,1.5,0,1,1,44,12.5,1.5,1.5,0,0,1,45.5,14Z"/><path class="cls-3" d="M44,14Zm0,3a3,3,0,1,1,3-3,3,3,0,0,1-3,3Z"/><polygon class="cls-4" points="50 13 64 13 64 11 50 11 50 13 50 13"/><polygon class="cls-4" points="50 17 64 17 64 15 50 15 50 17 50 17"/><polygon class="cls-4" points="50 21 59.33 21 59.33 19 50 19 50 21 50 21"/></svg>