<?xml version="1.0" encoding="UTF-8"?>
<svg id="Tour" xmlns="http://www.w3.org/2000/svg" viewBox="0 0 64 64">
  <defs>
    <style>
      .cls-1 {
        fill: #051c38;
      }

      .cls-2 {
        fill: #f0ebde;
      }

      .cls-3 {
        fill: #f0eadc;
      }

      .cls-4 {
        fill: #1d5080;
      }

      .cls-5 {
        fill: #f5c914;
      }

      .cls-6 {
        fill: #40c2c9;
      }

      .cls-7 {
        fill: #40c2c9;
      }
    </style>
  </defs>
  <path class="cls-3" d="M32,8c13.25,0,24,10.75,24,24s-10.75,24-24,24-24-10.75-24-24,10.75-24,24-24"/>
  <g>
    <g>
      <polygon class="cls-1" points="38.3 38.91 38.3 41.74 45.72 41.74 45.72 43.62 23.12 43.62 23.12 41.74 30.54 41.74 30.54 38.91 15.61 38.91 15.61 12.64 52.95 12.64 52.95 38.91 38.3 38.91"/>
      <rect class="cls-3" x="19.21" y="16.38" width="30.13" height="18.83"/>
    </g>
    <g>
      <path class="cls-5" d="M7.87,32.39c0,3.58,1.84,6.5,5.42,6.5h2.31v-1.48h-2.31c-2.77,0-3.99-2.94-3.94-5.02.07-2.77,2.25-5.02,5.02-5.02h4.83v-1.48h-4.83c-3.58,0-6.5,2.92-6.5,6.5Z"/>
      <polygon class="cls-7" points="20.34 29.88 20.34 23.42 23.8 25.58 23.81 25.58 24.52 26.02 25.51 26.65 24.52 27.27 24.51 27.27 23.77 27.73 20.34 29.88"/>
      <path class="cls-5" d="M46.45,52h-14.37v-1.4h14.37c.88,0,1.61-.72,1.61-1.61v-10.07h1.4v10.07c0,1.66-1.35,3.01-3.01,3.01Z"/>
    </g>
    <g>
      <path class="cls-6" d="M31.07,49.53c0-2.25-1.82-4.07-4.07-4.07s-4.07,1.82-4.07,4.07c0,1.13.46,2.15,1.2,2.89l2.87,2.99,2.87-2.99c.74-.74,1.21-1.76,1.21-2.89Z"/>
      <circle class="cls-2" cx="27" cy="49.54" r="1.83"/>
    </g>
    <g>
      <rect class="cls-5" x="34.68" y="28.85" width="1.88" height="4.49"/>
      <rect class="cls-5" x="37.54" y="26.31" width="1.88" height="7.02"/>
      <rect class="cls-5" x="40.4" y="27.76" width="1.88" height="5.58"/>
    </g>
    <g>
      <path class="cls-4" d="M36.57,19.57c-8.03.65-11.35,7.24-10.03,11.38.77-1.18,2.22-2.47,5.16-2.95-.17-3.49,1.11-5.93,4.86-8.44Z"/>
      <path class="cls-4" d="M32.45,28.51c-2.03.33-3.44.87-4.33,1.7.03,1.1.35,2.18.93,3.13.69-1.66,2.94-2.84,6.36-2.84-.83-3.98,1.03-7.63,3.92-10.07-1.43.21-2.84.58-4.18,1.11-2.2,2.1-3.03,4.82-2.7,6.98Z"/>
    </g>
  </g>
</svg>