<svg width="56" height="56" viewBox="0 0 56 56" fill="none" xmlns="http://www.w3.org/2000/svg">
<path d="M52.0801 27.92C52.0801 32.6667 50.6725 37.3069 48.0354 41.2537C45.3982 45.2005 41.6499 48.2766 37.2645 50.0931C32.8791 51.9096 28.0535 52.3849 23.3979 51.4588C18.7424 50.5328 14.466 48.247 11.1095 44.8905C7.75307 41.5341 5.46729 37.2577 4.54124 32.6022C3.6152 27.9466 4.09048 23.121 5.90698 18.7356C7.72348 14.3502 10.7996 10.6019 14.7464 7.96471C18.6932 5.32756 23.3333 3.91998 28.0801 3.91998C34.4453 3.91998 40.5498 6.44855 45.0507 10.9494C49.5515 15.4503 52.0801 21.5548 52.0801 27.92Z" fill="#F0EBDE"/>
<path d="M41 19H15C14.7348 19 14.4804 19.1054 14.2929 19.2929C14.1054 19.4804 14 19.7348 14 20V47.56C14.9208 48.2198 15.8864 48.8146 16.89 49.34V23.23H39.16V49.34C40.1636 48.8146 41.1292 48.2198 42.05 47.56V20C42.05 19.7348 41.9446 19.4804 41.7571 19.2929C41.5696 19.1054 41.3152 19 41.05 19H41Z" fill="#1D5080"/>
<path d="M39.1601 49.34V23.23H16.8401V49.34C20.2848 51.1397 24.1136 52.0796 28.0001 52.0796C31.8866 52.0796 35.7154 51.1397 39.1601 49.34Z" fill="white"/>
<path d="M36.03 27.5H19.97V26.5H36.03V27.5ZM36.03 29.51H19.97V28.5H36.03V29.51ZM32.67 31.51H19.97V30.51H32.67V31.51Z" fill="#1D5080"/>
<path d="M28 48.07C26.4087 48.07 24.8826 47.4379 23.7574 46.3126C22.6321 45.1874 22 43.6613 22 42.07C22 40.4787 22.6321 38.9526 23.7574 37.8274C24.8826 36.7021 26.4087 36.07 28 36.07V48.07Z" fill="#40C2C9"/>
<path d="M28 42.08V36C29.5959 35.9999 31.1272 36.6305 32.2604 37.7543C33.3936 38.8781 34.0368 40.4041 34.05 42L28 42.08Z" fill="#F5C914"/>
<path d="M28 42H34C34.0053 43.5994 33.3771 45.1358 32.2528 46.2733C31.1284 47.4108 29.5993 48.0568 28 48.07V42Z" fill="#40C2C9"/>
<path d="M30.01 21.6H25.99V20.6H30.01V21.6Z" fill="#F0EBDE"/>
</svg>
