<svg width="56" height="56" viewBox="0 0 56 56" fill="none" xmlns="http://www.w3.org/2000/svg">
<path d="M52 28C52 32.7468 50.5924 37.3869 47.9553 41.3337C45.3181 45.2805 41.5698 48.3566 37.1844 50.1731C32.799 51.9896 27.9734 52.4649 23.3178 51.5388C18.6623 50.6128 14.3859 48.327 11.0294 44.9706C7.67299 41.6141 5.38721 37.3377 4.46116 32.6822C3.53512 28.0266 4.0104 23.201 5.8269 18.8156C7.64341 14.4302 10.7195 10.6819 14.6663 8.04473C18.6131 5.40758 23.2533 4 28 4C34.3652 4 40.4697 6.52856 44.9706 11.0294C49.4714 15.5303 52 21.6348 52 28Z" fill="#F0EBDE"/>
<path d="M51.4199 31.61V31.82H55.8699V31.61C55.8699 28.1708 54.5072 24.8718 52.08 22.4352C49.6528 19.9987 46.3591 18.6232 42.9199 18.61V23.1C44.037 23.1 45.1431 23.3202 46.175 23.748C47.207 24.1758 48.1444 24.8028 48.9339 25.5931C49.7233 26.3835 50.3492 27.3217 50.7758 28.3541C51.2023 29.3865 51.4212 30.4929 51.4199 31.61Z" fill="#40C2C9"/>
<path d="M23.7901 15.77C24.9077 15.7713 26.014 15.9927 27.046 16.4216C28.078 16.8505 29.0154 17.4784 29.8047 18.2696C30.594 19.0607 31.2197 19.9996 31.6462 21.0326C32.0726 22.0656 32.2914 23.1724 32.2901 24.29V24.5H36.7401V24.29C36.7401 20.8422 35.3705 17.5356 32.9325 15.0976C30.4945 12.6596 27.1879 11.29 23.7401 11.29H23.5301C20.8624 11.298 18.2617 12.1266 16.081 13.6633C13.9003 15.2 12.2451 17.3704 11.3401 19.88C8.2168 20.286 5.3508 21.8233 3.28487 24.2007C1.21893 26.5781 0.0965014 29.6305 0.130129 32.78V35.73H55.8701V32.73H4.50013C4.49323 30.6019 5.28956 28.5495 6.73 26.983C8.17045 25.4165 10.1489 24.4512 12.2701 24.28H15.0801C15.0788 23.1624 15.2976 22.0556 15.7241 21.0226C16.1505 19.9896 16.7763 19.0507 17.5656 18.2596C18.3549 17.4684 19.2923 16.8405 20.3243 16.4116C21.3562 15.9827 22.4626 15.7613 23.5801 15.76L23.7901 15.77Z" fill="#1D5080"/>
<path d="M42.85 18.65C39.4729 18.6517 36.2302 19.9735 33.8143 22.3333C31.3985 24.6931 30.0009 27.9039 29.92 31.28H26L32.47 37.69L39 31.28H34.36C34.4452 29.0842 35.3766 27.0064 36.959 25.4817C38.5415 23.957 40.6525 23.1035 42.85 23.1H43.06V18.65H42.85Z" fill="#F5C914"/>
</svg>
