<svg width="56" height="56" viewBox="0 0 56 56" fill="none" xmlns="http://www.w3.org/2000/svg">
<path d="M52 28C52 32.7468 50.5924 37.3869 47.9553 41.3337C45.3181 45.2805 41.5698 48.3566 37.1844 50.1731C32.799 51.9896 27.9734 52.4649 23.3178 51.5388C18.6623 50.6128 14.3859 48.327 11.0294 44.9706C7.67299 41.6141 5.38721 37.3377 4.46116 32.6822C3.53512 28.0266 4.0104 23.201 5.8269 18.8156C7.64341 14.4302 10.7195 10.6819 14.6663 8.04473C18.6131 5.40758 23.2533 4 28 4C34.3652 4 40.4697 6.52856 44.9706 11.0294C49.4714 15.5303 52 21.6348 52 28Z" fill="#F0EBDE"/>
<path d="M32 28.5C32 31.566 31.0907 34.5632 29.3871 37.1123C27.6835 39.6615 25.2622 41.6482 22.4294 42.821C19.5966 43.9939 16.4796 44.3003 13.4726 43.7015C10.4656 43.1026 7.70382 41.6254 5.53649 39.4568C3.36915 37.2881 1.89367 34.5254 1.29668 31.5181C0.69968 28.5107 1.00799 25.3939 2.1826 22.5618C3.35722 19.7297 5.34537 17.3096 7.89559 15.6076C10.4458 13.9056 13.4435 12.9981 16.5095 13C18.5446 13 20.5597 13.401 22.4397 14.1801C24.3197 14.9591 26.0278 16.101 27.4663 17.5404C28.9049 18.9799 30.0457 20.6886 30.8236 22.5691C31.6015 24.4496 32.0012 26.465 32 28.5Z" fill="#1D5080"/>
<path d="M23 28.5C23 29.7856 22.6188 31.0423 21.9046 32.1112C21.1903 33.1801 20.1752 34.0132 18.9874 34.5052C17.7997 34.9972 16.4928 35.1259 15.2319 34.8751C13.971 34.6243 12.8128 34.0052 11.9038 33.0962C10.9948 32.1872 10.3757 31.029 10.1249 29.7681C9.87409 28.5072 10.0028 27.2003 10.4948 26.0126C10.9868 24.8248 11.8199 23.8097 12.8888 23.0954C13.9577 22.3812 15.2144 22 16.5 22C18.2239 22 19.8772 22.6848 21.0962 23.9038C22.3152 25.1228 23 26.7761 23 28.5Z" fill="#F0EBDE"/>
<path d="M55 28.4905C55.0019 31.5565 54.0944 34.5542 52.3924 37.1044C50.6904 39.6546 48.2703 41.6428 45.4382 42.8174C42.6061 43.992 39.4893 44.3003 36.4819 43.7033C33.4746 43.1063 30.7119 41.6308 28.5432 39.4635C26.3745 37.2962 24.8974 34.5344 24.2985 31.5274C23.6997 28.5204 24.0061 25.4034 25.179 22.5706C26.3518 19.7378 28.3385 17.3165 30.8877 15.6129C33.4368 13.9093 36.434 13 39.5 13C43.6092 13 47.5503 14.6317 50.4568 17.5365C53.3633 20.4412 54.9975 24.3813 55 28.4905Z" fill="#1D5080"/>
<path d="M24 28.5C23.9959 32.3671 25.4185 36.102 27.9992 39C30.5774 36.1004 32 32.3667 32 28.5C32 24.6333 30.5774 20.8996 27.9992 18C25.4185 20.898 23.9959 24.6329 24 28.5Z" fill="#F0EBDE"/>
<path d="M17 29H9C9 26.8783 9.84285 24.8434 11.3431 23.3431C12.8434 21.8429 14.8783 21 17 21V29Z" fill="#40C2C9"/>
<path d="M41 28C41.5933 28 42.1734 27.8241 42.6667 27.4944C43.1601 27.1648 43.5446 26.6962 43.7716 26.148C43.9987 25.5999 44.0581 24.9967 43.9424 24.4147C43.8266 23.8328 43.5409 23.2982 43.1213 22.8787C42.7018 22.4591 42.1672 22.1734 41.5853 22.0576C41.0033 21.9419 40.4001 22.0013 39.852 22.2284C39.3038 22.4554 38.8352 22.8399 38.5056 23.3333C38.1759 23.8266 38 24.4067 38 25C38 25.7956 38.3161 26.5587 38.8787 27.1213C39.4413 27.6839 40.2044 28 41 28Z" fill="#F0EBDE"/>
<path d="M43.06 29.0002H39C38.0339 28.9898 37.0966 29.3249 36.3613 29.9436C35.626 30.5624 35.1425 31.4229 35 32.3662C35.7576 33.1953 36.6832 33.8582 37.7167 34.3119C38.7503 34.7656 39.8688 35 41 35C42.1312 35 43.2497 34.7656 44.2833 34.3119C45.3169 33.8582 46.2424 33.1953 47 32.3662C46.8435 31.4308 46.3553 30.5808 45.6226 29.9679C44.8899 29.355 43.9604 29.019 43 29.02L43.06 29.0002Z" fill="#F5C914"/>
</svg>
